# xmcd
#
# Track frame offsets:
# 150
# 63299
# 120053
# 183808
# 242677
# 304665
#
# Disc length: 4777 seconds
#
# Revision: 0
# Processed by: cddbd v1.5.2PL0 Copyright (c) Steve Scherf et al.
# Submitted via: Audion 3.0.2 (http://www.panic.com/audion/)
#
DISCID=3c12a706
DTITLE=Iris Berben - Carola Stern - Alles, was ich in der Welt verlange - CD2
DYEAR=1900
DGENRE=
TTITLE0=Track 7
TTITLE1=Track 8
TTITLE2=Track 9
TTITLE3=Track 10
TTITLE4=Track 11
TTITLE5=Track 12
EXTD=
EXTT0=
EXTT1=
EXTT2=
EXTT3=
EXTT4=
EXTT5=
PLAYORDER=
